<mxfile host="app.diagrams.net" agent="Mozilla/5.0 (Macintosh; Intel Mac OS X 10_15_7) AppleWebKit/537.36 (KHTML, like Gecko) Chrome/129.0.0.0 Safari/537.36" version="24.7.17">
  <diagram id="C5RBs43oDa-KdzZeNtuy" name="Page-1">
    <mxGraphModel dx="1834" dy="1161" grid="1" gridSize="10" guides="1" tooltips="1" connect="1" arrows="1" fold="1" page="0" pageScale="1" pageWidth="827" pageHeight="1169" math="0" shadow="0">
      <root>
        <mxCell id="WIyWlLk6GJQsqaUBKTNV-0" />
        <mxCell id="WIyWlLk6GJQsqaUBKTNV-1" parent="WIyWlLk6GJQsqaUBKTNV-0" />
        <mxCell id="TM7kWoEH8Kgl29zYUBTl-17" value="" style="shape=image;html=1;verticalAlign=top;verticalLabelPosition=bottom;labelBackgroundColor=#ffffff;imageAspect=0;aspect=fixed;image=https://cdn2.iconfinder.com/data/icons/social-media-2285/512/1_Slack_colored_svg-128.png" parent="WIyWlLk6GJQsqaUBKTNV-1" vertex="1">
          <mxGeometry x="230" y="-131" width="64" height="64" as="geometry" />
        </mxCell>
        <mxCell id="nHR8Dk88MJTBsOPazzTW-0" value="" style="outlineConnect=0;dashed=0;verticalLabelPosition=bottom;verticalAlign=top;align=center;html=1;shape=mxgraph.aws3.virtual_private_cloud;fillColor=#F58534;gradientColor=none;" parent="WIyWlLk6GJQsqaUBKTNV-1" vertex="1">
          <mxGeometry x="-260" y="-81" width="79.5" height="54" as="geometry" />
        </mxCell>
        <mxCell id="nHR8Dk88MJTBsOPazzTW-1" value="VPC" style="points=[[0,0],[0.25,0],[0.5,0],[0.75,0],[1,0],[1,0.25],[1,0.5],[1,0.75],[1,1],[0.75,1],[0.5,1],[0.25,1],[0,1],[0,0.75],[0,0.5],[0,0.25]];outlineConnect=0;gradientColor=none;html=1;whiteSpace=wrap;fontSize=12;fontStyle=0;container=1;pointerEvents=0;collapsible=0;recursiveResize=0;shape=mxgraph.aws4.group;grIcon=mxgraph.aws4.group_vpc2;strokeColor=#8C4FFF;fillColor=none;verticalAlign=top;align=left;spacingLeft=30;fontColor=#AAB7B8;dashed=0;" parent="WIyWlLk6GJQsqaUBKTNV-1" vertex="1">
          <mxGeometry x="-260" y="-20" width="850" height="528.5" as="geometry" />
        </mxCell>
        <mxCell id="cLxZ3VK7D4FxL8ryzwBJ-1" value="Private subnet" style="points=[[0,0],[0.25,0],[0.5,0],[0.75,0],[1,0],[1,0.25],[1,0.5],[1,0.75],[1,1],[0.75,1],[0.5,1],[0.25,1],[0,1],[0,0.75],[0,0.5],[0,0.25]];outlineConnect=0;gradientColor=none;html=1;whiteSpace=wrap;fontSize=12;fontStyle=0;container=1;pointerEvents=0;collapsible=0;recursiveResize=0;shape=mxgraph.aws4.group;grIcon=mxgraph.aws4.group_security_group;grStroke=0;strokeColor=#00A4A6;fillColor=#E6F6F7;verticalAlign=top;align=left;spacingLeft=30;fontColor=#147EBA;dashed=0;" parent="nHR8Dk88MJTBsOPazzTW-1" vertex="1">
          <mxGeometry x="250" y="35" width="540" height="445" as="geometry" />
        </mxCell>
        <mxCell id="TM7kWoEH8Kgl29zYUBTl-26" value="Trigger" style="text;align=left;verticalAlign=top;spacingLeft=4;spacingRight=4;overflow=hidden;rotatable=0;points=[[0,0.5],[1,0.5]];portConstraint=eastwest;" parent="cLxZ3VK7D4FxL8ryzwBJ-1" vertex="1">
          <mxGeometry x="-10" y="231" width="60" height="64" as="geometry" />
        </mxCell>
        <mxCell id="TM7kWoEH8Kgl29zYUBTl-2" value="" style="image;sketch=0;aspect=fixed;html=1;points=[];align=center;fontSize=12;image=img/lib/mscae/Docker.svg;" parent="cLxZ3VK7D4FxL8ryzwBJ-1" vertex="1">
          <mxGeometry x="143.82999999999996" y="260.5" width="73.17" height="60" as="geometry" />
        </mxCell>
        <mxCell id="zkfFHV4jXpPFQw0GAbJ--17" value="ec2 - gitlab" style="swimlane;fontStyle=0;align=center;verticalAlign=top;childLayout=stackLayout;horizontal=1;startSize=26;horizontalStack=0;resizeParent=1;resizeLast=0;collapsible=1;marginBottom=0;rounded=0;shadow=0;strokeWidth=1;fontColor=#000000;fillColor=#fa6800;strokeColor=#C73500;" parent="cLxZ3VK7D4FxL8ryzwBJ-1" vertex="1">
          <mxGeometry x="56.999999999999886" y="330.5" width="160" height="100" as="geometry">
            <mxRectangle x="550" y="140" width="160" height="26" as="alternateBounds" />
          </mxGeometry>
        </mxCell>
        <mxCell id="zkfFHV4jXpPFQw0GAbJ--23" value="" style="line;html=1;strokeWidth=1;align=left;verticalAlign=middle;spacingTop=-1;spacingLeft=3;spacingRight=3;rotatable=0;labelPosition=right;points=[];portConstraint=eastwest;" parent="zkfFHV4jXpPFQw0GAbJ--17" vertex="1">
          <mxGeometry y="26" width="160" height="8" as="geometry" />
        </mxCell>
        <mxCell id="zkfFHV4jXpPFQw0GAbJ--25" value="Container that runs gitlab&#xa; server. Sends trigger to the &#xa;jenkins master." style="text;align=left;verticalAlign=top;spacingLeft=4;spacingRight=4;overflow=hidden;rotatable=0;points=[[0,0.5],[1,0.5]];portConstraint=eastwest;" parent="zkfFHV4jXpPFQw0GAbJ--17" vertex="1">
          <mxGeometry y="34" width="160" height="56" as="geometry" />
        </mxCell>
        <mxCell id="TM7kWoEH8Kgl29zYUBTl-1" value="" style="shape=image;html=1;verticalAlign=top;verticalLabelPosition=bottom;labelBackgroundColor=#ffffff;imageAspect=0;aspect=fixed;image=https://cdn4.iconfinder.com/data/icons/socialcones/508/Gitlab-128.png" parent="cLxZ3VK7D4FxL8ryzwBJ-1" vertex="1">
          <mxGeometry x="63.999999999999915" y="260.5" width="58" height="58" as="geometry" />
        </mxCell>
        <mxCell id="TM7kWoEH8Kgl29zYUBTl-3" value="" style="image;sketch=0;aspect=fixed;html=1;points=[];align=center;fontSize=12;image=img/lib/mscae/Docker.svg;" parent="cLxZ3VK7D4FxL8ryzwBJ-1" vertex="1">
          <mxGeometry x="143.83000000000004" y="32" width="73.17" height="60" as="geometry" />
        </mxCell>
        <mxCell id="TM7kWoEH8Kgl29zYUBTl-7" value="" style="shape=image;verticalLabelPosition=bottom;labelBackgroundColor=default;verticalAlign=top;aspect=fixed;imageAspect=0;image=https://upload.wikimedia.org/wikipedia/commons/thumb/e/e9/Jenkins_logo.svg/1200px-Jenkins_logo.svg.png;" parent="cLxZ3VK7D4FxL8ryzwBJ-1" vertex="1">
          <mxGeometry x="56.999999999999886" y="22" width="50.69" height="70" as="geometry" />
        </mxCell>
        <mxCell id="zkfFHV4jXpPFQw0GAbJ--0" value="ec2 - jenkings master" style="swimlane;fontStyle=2;align=center;verticalAlign=top;childLayout=stackLayout;horizontal=1;startSize=26;horizontalStack=0;resizeParent=1;resizeLast=0;collapsible=1;marginBottom=0;rounded=0;shadow=0;strokeWidth=1;fillColor=#f8cecc;gradientColor=#ea6b66;strokeColor=#b85450;" parent="cLxZ3VK7D4FxL8ryzwBJ-1" vertex="1">
          <mxGeometry x="50" y="106" width="190" height="115" as="geometry">
            <mxRectangle x="230" y="140" width="160" height="26" as="alternateBounds" />
          </mxGeometry>
        </mxCell>
        <mxCell id="zkfFHV4jXpPFQw0GAbJ--4" value="" style="line;html=1;strokeWidth=1;align=left;verticalAlign=middle;spacingTop=-1;spacingLeft=3;spacingRight=3;rotatable=0;labelPosition=right;points=[];portConstraint=eastwest;" parent="zkfFHV4jXpPFQw0GAbJ--0" vertex="1">
          <mxGeometry y="26" width="190" height="8" as="geometry" />
        </mxCell>
        <mxCell id="zkfFHV4jXpPFQw0GAbJ--5" value="Container that runs jenkins&#xa; master. Assign the pipeline &#xa;to worker." style="text;align=left;verticalAlign=top;spacingLeft=4;spacingRight=4;overflow=hidden;rotatable=0;points=[[0,0.5],[1,0.5]];portConstraint=eastwest;" parent="zkfFHV4jXpPFQw0GAbJ--0" vertex="1">
          <mxGeometry y="34" width="190" height="56" as="geometry" />
        </mxCell>
        <mxCell id="zkfFHV4jXpPFQw0GAbJ--13" value="ec2 - dynamic agent" style="swimlane;fontStyle=0;align=center;verticalAlign=top;childLayout=stackLayout;horizontal=1;startSize=26;horizontalStack=0;resizeParent=1;resizeLast=0;collapsible=1;marginBottom=0;rounded=0;shadow=0;strokeWidth=1;fillColor=#f8cecc;strokeColor=#b85450;gradientColor=#ea6b66;" parent="cLxZ3VK7D4FxL8ryzwBJ-1" vertex="1">
          <mxGeometry x="305.15999999999997" y="101.5" width="190" height="124" as="geometry">
            <mxRectangle x="340" y="380" width="170" height="26" as="alternateBounds" />
          </mxGeometry>
        </mxCell>
        <mxCell id="zkfFHV4jXpPFQw0GAbJ--15" value="" style="line;html=1;strokeWidth=1;align=left;verticalAlign=middle;spacingTop=-1;spacingLeft=3;spacingRight=3;rotatable=0;labelPosition=right;points=[];portConstraint=eastwest;" parent="zkfFHV4jXpPFQw0GAbJ--13" vertex="1">
          <mxGeometry y="26" width="190" height="8" as="geometry" />
        </mxCell>
        <mxCell id="TM7kWoEH8Kgl29zYUBTl-27" value="Container that runs jenkins&#xa; worker. Test, build, run, &#xa;push and deploy to eks with&#xa; helm." style="text;align=left;verticalAlign=top;spacingLeft=4;spacingRight=4;overflow=hidden;rotatable=0;points=[[0,0.5],[1,0.5]];portConstraint=eastwest;" parent="zkfFHV4jXpPFQw0GAbJ--13" vertex="1">
          <mxGeometry y="34" width="190" height="66" as="geometry" />
        </mxCell>
        <mxCell id="TM7kWoEH8Kgl29zYUBTl-4" value="" style="image;sketch=0;aspect=fixed;html=1;points=[];align=center;fontSize=12;image=img/lib/mscae/Docker.svg;" parent="cLxZ3VK7D4FxL8ryzwBJ-1" vertex="1">
          <mxGeometry x="400" y="27" width="73.17" height="60" as="geometry" />
        </mxCell>
        <mxCell id="TM7kWoEH8Kgl29zYUBTl-8" value="" style="shape=image;verticalLabelPosition=bottom;labelBackgroundColor=default;verticalAlign=top;aspect=fixed;imageAspect=0;image=https://upload.wikimedia.org/wikipedia/commons/thumb/e/e9/Jenkins_logo.svg/1200px-Jenkins_logo.svg.png;" parent="cLxZ3VK7D4FxL8ryzwBJ-1" vertex="1">
          <mxGeometry x="320" y="22" width="50.69" height="70" as="geometry" />
        </mxCell>
        <mxCell id="wvvN9CQzxBYPp4Gpy_zy-1" style="edgeStyle=orthogonalEdgeStyle;rounded=0;orthogonalLoop=1;jettySize=auto;html=1;exitX=0;exitY=0.5;exitDx=0;exitDy=0;entryX=0;entryY=0.5;entryDx=0;entryDy=0;" parent="cLxZ3VK7D4FxL8ryzwBJ-1" source="zkfFHV4jXpPFQw0GAbJ--25" target="zkfFHV4jXpPFQw0GAbJ--5" edge="1">
          <mxGeometry relative="1" as="geometry" />
        </mxCell>
        <mxCell id="EG0ce8ajkI2ptLBl0P0L-60" style="edgeStyle=orthogonalEdgeStyle;rounded=0;orthogonalLoop=1;jettySize=auto;html=1;exitX=1;exitY=0.5;exitDx=0;exitDy=0;" parent="cLxZ3VK7D4FxL8ryzwBJ-1" source="zkfFHV4jXpPFQw0GAbJ--5" target="TM7kWoEH8Kgl29zYUBTl-27" edge="1">
          <mxGeometry relative="1" as="geometry" />
        </mxCell>
        <mxCell id="EG0ce8ajkI2ptLBl0P0L-33" value="" style="sketch=0;points=[[0,0,0],[0.25,0,0],[0.5,0,0],[0.75,0,0],[1,0,0],[0,1,0],[0.25,1,0],[0.5,1,0],[0.75,1,0],[1,1,0],[0,0.25,0],[0,0.5,0],[0,0.75,0],[1,0.25,0],[1,0.5,0],[1,0.75,0]];outlineConnect=0;fontColor=#232F3E;fillColor=#ED7100;strokeColor=#ffffff;dashed=0;verticalLabelPosition=bottom;verticalAlign=top;align=center;html=1;fontSize=12;fontStyle=0;aspect=fixed;shape=mxgraph.aws4.resourceIcon;resIcon=mxgraph.aws4.eks_anywhere;" parent="cLxZ3VK7D4FxL8ryzwBJ-1" vertex="1">
          <mxGeometry x="348.83" y="292.34" width="102.66" height="102.66" as="geometry" />
        </mxCell>
        <mxCell id="EG0ce8ajkI2ptLBl0P0L-34" value="EKS" style="text;align=center;verticalAlign=top;spacingLeft=4;spacingRight=4;overflow=hidden;rotatable=0;points=[[0,0.5],[1,0.5]];portConstraint=eastwest;" parent="cLxZ3VK7D4FxL8ryzwBJ-1" vertex="1">
          <mxGeometry x="355.16" y="402.5" width="90" height="28" as="geometry" />
        </mxCell>
        <mxCell id="NV9d2Z1FnDySuTYnnWmf-2" style="edgeStyle=orthogonalEdgeStyle;rounded=0;orthogonalLoop=1;jettySize=auto;html=1;exitX=0.5;exitY=1;exitDx=0;exitDy=0;entryX=0.5;entryY=0;entryDx=0;entryDy=0;entryPerimeter=0;" edge="1" parent="cLxZ3VK7D4FxL8ryzwBJ-1" source="zkfFHV4jXpPFQw0GAbJ--13" target="EG0ce8ajkI2ptLBl0P0L-33">
          <mxGeometry relative="1" as="geometry" />
        </mxCell>
        <mxCell id="cLxZ3VK7D4FxL8ryzwBJ-12" value="Public subnet" style="points=[[0,0],[0.25,0],[0.5,0],[0.75,0],[1,0],[1,0.25],[1,0.5],[1,0.75],[1,1],[0.75,1],[0.5,1],[0.25,1],[0,1],[0,0.75],[0,0.5],[0,0.25]];outlineConnect=0;gradientColor=none;html=1;whiteSpace=wrap;fontSize=12;fontStyle=0;container=1;pointerEvents=0;collapsible=0;recursiveResize=0;shape=mxgraph.aws4.group;grIcon=mxgraph.aws4.group_security_group;grStroke=0;strokeColor=#7AA116;fillColor=#F2F6E8;verticalAlign=top;align=left;spacingLeft=30;fontColor=#248814;dashed=0;" parent="nHR8Dk88MJTBsOPazzTW-1" vertex="1">
          <mxGeometry x="40" y="40" width="180" height="440" as="geometry" />
        </mxCell>
        <mxCell id="cLxZ3VK7D4FxL8ryzwBJ-13" value="" style="outlineConnect=0;dashed=0;verticalLabelPosition=bottom;verticalAlign=top;align=center;html=1;shape=mxgraph.aws3.application_load_balancer;fillColor=#F58534;gradientColor=none;" parent="cLxZ3VK7D4FxL8ryzwBJ-12" vertex="1">
          <mxGeometry x="61" y="226" width="69" height="72" as="geometry" />
        </mxCell>
        <mxCell id="cLxZ3VK7D4FxL8ryzwBJ-14" value="" style="sketch=0;outlineConnect=0;fontColor=#232F3E;gradientColor=none;fillColor=#8C4FFF;strokeColor=none;dashed=0;verticalLabelPosition=bottom;verticalAlign=top;align=center;html=1;fontSize=12;fontStyle=0;aspect=fixed;pointerEvents=1;shape=mxgraph.aws4.nat_gateway;" parent="cLxZ3VK7D4FxL8ryzwBJ-12" vertex="1">
          <mxGeometry x="61" y="50" width="78" height="78" as="geometry" />
        </mxCell>
        <mxCell id="cLxZ3VK7D4FxL8ryzwBJ-15" value="Application node balancer&#xa;" style="text;align=left;verticalAlign=top;spacingLeft=4;spacingRight=4;overflow=hidden;rotatable=0;points=[[0,0.5],[1,0.5]];portConstraint=eastwest;" parent="cLxZ3VK7D4FxL8ryzwBJ-12" vertex="1">
          <mxGeometry x="19.999999999999886" y="310" width="160" height="56" as="geometry" />
        </mxCell>
        <mxCell id="cLxZ3VK7D4FxL8ryzwBJ-16" value="NAT instance" style="text;align=left;verticalAlign=top;spacingLeft=4;spacingRight=4;overflow=hidden;rotatable=0;points=[[0,0.5],[1,0.5]];portConstraint=eastwest;" parent="cLxZ3VK7D4FxL8ryzwBJ-12" vertex="1">
          <mxGeometry x="55.999999999999886" y="140" width="160" height="56" as="geometry" />
        </mxCell>
        <mxCell id="TM7kWoEH8Kgl29zYUBTl-33" value="Notify" style="text;align=left;verticalAlign=top;spacingLeft=4;spacingRight=4;overflow=hidden;rotatable=0;points=[[0,0.5],[1,0.5]];portConstraint=eastwest;" parent="WIyWlLk6GJQsqaUBKTNV-1" vertex="1">
          <mxGeometry x="270" y="-56" width="60" height="36" as="geometry" />
        </mxCell>
        <mxCell id="EG0ce8ajkI2ptLBl0P0L-31" style="edgeStyle=orthogonalEdgeStyle;rounded=0;orthogonalLoop=1;jettySize=auto;html=1;exitX=1;exitY=0.25;exitDx=0;exitDy=0;entryX=0.5;entryY=1;entryDx=0;entryDy=0;" parent="WIyWlLk6GJQsqaUBKTNV-1" source="zkfFHV4jXpPFQw0GAbJ--0" target="TM7kWoEH8Kgl29zYUBTl-17" edge="1">
          <mxGeometry relative="1" as="geometry">
            <mxPoint x="250" y="-79" as="targetPoint" />
          </mxGeometry>
        </mxCell>
        <mxCell id="EG0ce8ajkI2ptLBl0P0L-32" value="Dockerhub" style="text;align=left;verticalAlign=top;spacingLeft=4;spacingRight=4;overflow=hidden;rotatable=0;points=[[0,0.5],[1,0.5]];portConstraint=eastwest;" parent="WIyWlLk6GJQsqaUBKTNV-1" vertex="1">
          <mxGeometry x="685.1999999999999" y="92" width="70" height="36" as="geometry" />
        </mxCell>
        <mxCell id="EG0ce8ajkI2ptLBl0P0L-45" value="" style="shape=image;verticalLabelPosition=bottom;labelBackgroundColor=default;verticalAlign=top;aspect=fixed;imageAspect=0;image=https://gitlab.com/uploads/-/system/project/avatar/22180576/dockerhub.png;" parent="WIyWlLk6GJQsqaUBKTNV-1" vertex="1">
          <mxGeometry x="669.9999999999999" y="128" width="100.39" height="80" as="geometry" />
        </mxCell>
        <mxCell id="EG0ce8ajkI2ptLBl0P0L-59" value="Slack" style="text;align=left;verticalAlign=top;spacingLeft=4;spacingRight=4;overflow=hidden;rotatable=0;points=[[0,0.5],[1,0.5]];portConstraint=eastwest;" parent="WIyWlLk6GJQsqaUBKTNV-1" vertex="1">
          <mxGeometry x="242" y="-160" width="60" height="36" as="geometry" />
        </mxCell>
        <mxCell id="NV9d2Z1FnDySuTYnnWmf-1" style="edgeStyle=orthogonalEdgeStyle;rounded=0;orthogonalLoop=1;jettySize=auto;html=1;exitX=1;exitY=0.25;exitDx=0;exitDy=0;entryX=0;entryY=0.25;entryDx=0;entryDy=0;" edge="1" parent="WIyWlLk6GJQsqaUBKTNV-1" source="zkfFHV4jXpPFQw0GAbJ--13" target="EG0ce8ajkI2ptLBl0P0L-45">
          <mxGeometry relative="1" as="geometry" />
        </mxCell>
        <mxCell id="NV9d2Z1FnDySuTYnnWmf-3" style="edgeStyle=orthogonalEdgeStyle;rounded=0;orthogonalLoop=1;jettySize=auto;html=1;exitX=0.5;exitY=1;exitDx=0;exitDy=0;entryX=1;entryY=0.5;entryDx=0;entryDy=0;entryPerimeter=0;" edge="1" parent="WIyWlLk6GJQsqaUBKTNV-1" source="EG0ce8ajkI2ptLBl0P0L-45" target="EG0ce8ajkI2ptLBl0P0L-33">
          <mxGeometry relative="1" as="geometry" />
        </mxCell>
      </root>
    </mxGraphModel>
  </diagram>
</mxfile>
